<?xml version="1.0" encoding="UTF-8" standalone="no"?>
<svg
   width="550.58118"
   height="158.93008"
   version="1.1"
   id="svg83"
   sodipodi:docname="svg.svg"
   xmlns:inkscape="http://www.inkscape.org/namespaces/inkscape"
   xmlns:sodipodi="http://sodipodi.sourceforge.net/DTD/sodipodi-0.dtd"
   xmlns="http://www.w3.org/2000/svg"
   xmlns:svg="http://www.w3.org/2000/svg">
  <defs
     id="defs87" />
  <sodipodi:namedview
     id="namedview85"
     pagecolor="#ffffff"
     bordercolor="#000000"
     borderopacity="0.25"
     inkscape:showpageshadow="2"
     inkscape:pageopacity="0.0"
     inkscape:pagecheckerboard="0"
     inkscape:deskcolor="#d1d1d1"
     showgrid="false" />
  <g
     id="g81"
     transform="translate(-2.3415971,-2.1955097)">
    <title
       id="title37">Layer 1</title>
    <g
       id="g78"
       transform="translate(-15.367813,-10.339452)">
      <g
         data-name="Layer 6"
         id="svg_1">
        <path
           fill="#444444"
           d="m 177.83941,171.45505 a 7.29,7.29 0 0 1 -7.27,-7.26 v -110.37 a 7.25,7.25 0 0 1 13.14,-4.29 25.68,25.68 0 0 1 25,0.29 25.74,25.74 0 0 1 9.17,9.11 24.1,24.1 0 0 1 3.43,12.66 v 26.27 a 24.1,24.1 0 0 1 -3.5,12.67 25.87,25.87 0 0 1 -9.17,9.13 24.49,24.49 0 0 1 -12.73,3.4 24.12,24.12 0 0 1 -10.81,-2.45 v 43.59 a 7.27,7.27 0 0 1 -7.26,7.26 z m 18.07,-110.46 a 10.53,10.53 0 0 0 -7.63,3.11 10.12,10.12 0 0 0 -3.18,7.51 v 26.25 a 10.2,10.2 0 0 0 3.18,7.53 10.86,10.86 0 0 0 15.28,0 10.24,10.24 0 0 0 3.15,-7.53 v -26.25 a 10.17,10.17 0 0 0 -3.15,-7.51 10.53,10.53 0 0 0 -7.65,-3.11 z"
           class="cls-1"
           id="path39" />
        <path
           fill="#444444"
           d="m 273.08941,46.46505 a 7.29,7.29 0 0 1 7.26,7.27 v 93 a 23.71,23.71 0 0 1 -3.36,12.42 25.33,25.33 0 0 1 -9,8.94 24,24 0 0 1 -12.48,3.34 25.3,25.3 0 0 1 -17.66,-7.17 q -7.54,-7.63 -7.54,-17.53 a 7.27,7.27 0 0 1 14.53,0 9.56,9.56 0 0 0 3.15,7.15 10.48,10.48 0 0 0 7.52,3 10,10 0 0 0 7.29,-3 9.73,9.73 0 0 0 3,-7.2 v -24.6 a 24.25,24.25 0 0 1 -22.29,-1.16 25.25,25.25 0 0 1 -8.85,-9 24.29,24.29 0 0 1 -3.3,-12.39 v -45.76 a 7.27,7.27 0 0 1 14.53,0 v 45.76 a 10.13,10.13 0 0 0 2.91,7.29 9.6,9.6 0 0 0 14,0 10.13,10.13 0 0 0 2.91,-7.29 6.42,6.42 0 0 1 0.13,-1.32 v -44.48 a 7.31,7.31 0 0 1 7.27,-7.27 z"
           class="cls-1"
           id="path41" />
        <path
           fill="#444444"
           d="m 338.14941,112.97505 a 8.43,8.43 0 0 1 0.36,2.37 8.68,8.68 0 0 1 -1,3.72 6.56,6.56 0 0 1 -3.93,3.13 6.82,6.82 0 0 1 -2.31,0.41 7,7 0 0 1 -4.16,-1.34 7.44,7.44 0 0 1 -2.7,-3.61 l -12.17,-36 -8.26,8.22 v 26 a 7.27,7.27 0 1 1 -14.53,0 v -92.61 a 7.05,7.05 0 0 1 2.11,-5.13 7.28,7.28 0 0 1 10.29,0 7,7 0 0 1 2.13,5.13 v 46.17 l 21.23,-21.11 a 7.29,7.29 0 0 1 5.13,-2.13 7.19,7.19 0 0 1 5.13,2.13 7.37,7.37 0 0 1 2.13,5.21 7.19,7.19 0 0 1 -2.13,5.13 l -11.85,11.68 a 4.87,4.87 0 0 1 0.36,0.82 z"
           class="cls-1"
           id="path43" />
        <path
           fill="#444444"
           d="m 392.76941,63.94505 a 8.32,8.32 0 0 1 0.31,2.23 v 0.5 a 7.81,7.81 0 0 1 0.05,0.86 v 48.58 a 7.24,7.24 0 0 1 -7.27,7.26 6.92,6.92 0 0 1 -5.81,-3 25.39,25.39 0 0 1 -24.81,-0.38 26.15,26.15 0 0 1 -9.22,-9.15 24.29,24.29 0 0 1 -3.42,-12.71 7.19,7.19 0 0 1 0.32,-2.18 v 0 a 0.22,0.22 0 0 0 0,-0.13 21.44,21.44 0 0 1 0.5,-2.23 v 0 a 25.21,25.21 0 0 1 8.69,-13.24 25.49,25.49 0 0 1 14.83,-5.51 8,8 0 0 1 1.22,-0.09 10.65,10.65 0 0 0 6.29,-2 10.94,10.94 0 0 0 4,-5.29 10.93,10.93 0 0 0 -4.06,-4.64 10.87,10.87 0 0 0 -15.6,4.23 7.41,7.41 0 0 1 -4.21,3.48 7.29,7.29 0 0 1 -2.13,0.32 7.67,7.67 0 0 1 -3.41,-0.82 7,7 0 0 1 -3.58,-4.22 6.88,6.88 0 0 1 -0.37,-2.18 7.69,7.69 0 0 1 0.82,-3.36 25.87,25.87 0 0 1 9.22,-10 25.55,25.55 0 0 1 37.64,13.66 z m -24.75,45 a 10.66,10.66 0 0 0 6.27,-2 11,11 0 0 0 4,-5.29 l 0.27,-0.72 v -13.97 a 24.62,24.62 0 0 1 -9.35,2.18 5.52,5.52 0 0 1 -1.23,0.14 10.6,10.6 0 0 0 -6.58,2.2 10.87,10.87 0 0 0 -4,5.79 c -0.09,0.33 -0.17,0.65 -0.23,1 a 3.41,3.41 0 0 1 -0.13,0.59 10.89,10.89 0 0 0 3.49,7.19 10.45,10.45 0 0 0 7.49,2.84 z"
           class="cls-1"
           id="path45" />
        <path
           fill="#444444"
           d="m 409.46941,123.33505 a 7.29,7.29 0 0 1 -7.26,-7.27 v -62.43 a 7.26,7.26 0 0 1 13.62,-3.49 24.19,24.19 0 0 1 23.09,0.82 25.24,25.24 0 0 1 8.85,9 24.3,24.3 0 0 1 3.29,12.48 v 43.63 a 7,7 0 0 1 -2.13,5.15 7.27,7.27 0 0 1 -10.26,0 6.93,6.93 0 0 1 -2.14,-5.15 v -43.64 a 10.18,10.18 0 0 0 -2.9,-7.29 9.63,9.63 0 0 0 -14,0 10.18,10.18 0 0 0 -2.92,7.29 v 43.63 a 7.31,7.31 0 0 1 -7.27,7.27 z"
           class="cls-1"
           id="path47" />
        <path
           fill="#444444"
           d="m 502.54941,92.53505 a 7.27,7.27 0 0 1 7.26,7.26 23.71,23.71 0 0 1 -3.36,12.42 25.41,25.41 0 0 1 -9,8.94 25,25 0 0 1 -25,0 25.41,25.41 0 0 1 -9,-8.94 23.71,23.71 0 0 1 -3.36,-12.42 v -76.53 a 7,7 0 0 1 2.13,-5.13 7.25,7.25 0 0 1 10.27,0 7,7 0 0 1 2.22,5.13 v 23.27 h 21.88 a 7.26,7.26 0 0 1 5.12,12.39 7,7 0 0 1 -5.13,2.12 h -21.87 v 38.72 a 9.74,9.74 0 0 0 3,7.2 10.42,10.42 0 0 0 14.57,0 9.74,9.74 0 0 0 3,-7.2 7.29,7.29 0 0 1 7.27,-7.23 z"
           class="cls-1"
           id="path49" />
        <path
           fill="#444444"
           d="m 568.28941,98.08505 a 24.23,24.23 0 0 1 -3.43,12.67 26,26 0 0 1 -9.2,9.13 25.66,25.66 0 0 1 -25.53,0 26,26 0 0 1 -9.17,-9.13 24.14,24.14 0 0 1 -3.43,-12.67 v -26.33 a 24.16,24.16 0 0 1 3.43,-12.67 25.93,25.93 0 0 1 9.17,-9.12 25.6,25.6 0 0 1 25.53,0 25.93,25.93 0 0 1 9.2,9.12 24.26,24.26 0 0 1 3.43,12.67 z m -14.53,0 v -26.33 a 10.18,10.18 0 0 0 -3.2,-7.54 11,11 0 0 0 -15.35,0 10.18,10.18 0 0 0 -3.2,7.54 v 26.33 a 10.18,10.18 0 0 0 3.2,7.54 11,11 0 0 0 15.35,0 10.18,10.18 0 0 0 3.2,-7.54 z"
           class="cls-1"
           id="path51" />
        <path
           fill="#444444"
           d="m 53.91941,154.53505 h 0.26 a 5.09,5.09 0 0 0 5.09,-5.09 v -4.61 a 98.07,98.07 0 0 1 -10,6.58 5.09,5.09 0 0 0 4.65,3.12 z"
           class="cls-1"
           id="path53" />
        <path
           fill="#444444"
           d="m 59.26941,31.94505 a 5.09,5.09 0 0 0 -5.09,-5.09 h -0.26 a 5.09,5.09 0 0 0 -5.09,5.09 v 31.71 a 29.48,29.48 0 0 1 10.44,-2.12 z"
           class="cls-1"
           id="path55" />
        <path
           fill="#444444"
           d="m 64.38941,140.63505 v 23.14 a 5.09,5.09 0 0 0 5.09,5.09 h 0.23 a 5.09,5.09 0 0 0 5.09,-5.09 v -34.95 a 75.34,75.34 0 0 1 -4.84,6.14 65.2,65.2 0 0 1 -5.57,5.67 z"
           class="cls-1"
           id="path57" />
        <path
           fill="#444444"
           d="m 74.82941,17.62505 a 5.09,5.09 0 0 0 -5.12,-5.09 h -0.26 a 5.09,5.09 0 0 0 -5.09,5.09 v 44.05 c 3.62,0.31 7.15,0.61 10.44,1.89 z"
           class="cls-1"
           id="path59" />
        <path
           fill="#444444"
           d="m 90.01941,65.88505 0.37,-0.12 v -14 a 5.09,5.09 0 0 0 -5.09,-5.09 h -0.26 a 5.09,5.09 0 0 0 -5.09,5.09 v 14.19 a 15.92,15.92 0 0 0 10.07,-0.07 z"
           class="cls-1"
           id="path61" />
        <path
           fill="#444444"
           d="m 84.10941,76.11505 c -2.3,1.44 -4.22,3 -4.16,5.13 v 0 a 4.19,4.19 0 0 0 0.38,1.54 2.39,2.39 0 0 0 1.09,1.15 48.64,48.64 0 0 0 9,3.44 v -15.3 c -2.12,1.37 -4.2,2.72 -6.31,4.04 z"
           class="cls-1"
           id="path63" />
        <path
           fill="#444444"
           d="m 88.53941,93.99505 c -2.76,3.58 -5,7.43 -5.29,12.29 a 38.92,38.92 0 0 1 -3.3,13.59 v 9.76 a 5.09,5.09 0 0 0 5.09,5.09 h 0.26 a 5.09,5.09 0 0 0 5.09,-5.09 v -36.71 h -0.09 a 3.35,3.35 0 0 0 -1.76,1.07 z"
           class="cls-1"
           id="path65" />
        <path
           fill="#444444"
           d="m 100.85941,27.61505 h -0.26 a 5.09,5.09 0 0 0 -5.09,5.09 v 31.48 a 17,17 0 0 1 6.58,-0.58 0.37,0.37 0 0 1 0.13,0.68 c -2.32,1.51 -4.53,3 -6.71,4.42 v 20 c 3,0.76 6,1.47 8.85,2.39 a 0.47,0.47 0 0 1 0,0.87 c -3,1.24 -5.91,1 -8.88,0.78 v 55.93 a 5.09,5.09 0 0 0 5.09,5.09 h 0.26 a 5.09,5.09 0 0 0 5.1,-5.09 v -116 a 5.09,5.09 0 0 0 -5.07,-5.06 z"
           class="cls-1"
           id="path67" />
        <path
           fill="#444444"
           d="m 43.70941,66.35505 v -1.68 a 5.09,5.09 0 0 0 -5.09,-5.09 h -0.26 a 5.09,5.09 0 0 0 -5.09,5.09 v 11.68 a 43.93,43.93 0 0 1 10.44,-10 z"
           class="cls-1"
           id="path69" />
        <rect
           fill="#444444"
           rx="5.0900002"
           height="60.150002"
           width="10.44"
           y="60.62505"
           x="111.06941"
           class="cls-1"
           id="rect71" />
        <rect
           fill="#444444"
           rx="5.0900002"
           height="18.780001"
           width="10.44"
           y="81.315048"
           x="126.62941"
           class="cls-1"
           id="rect73" />
        <path
           fill="#444444"
           d="m 27.13941,85.41505 1,-1.59 v -0.29 a 5.09,5.09 0 0 0 -5.09,-5.09 h -0.25 a 5.09,5.09 0 0 0 -5.09,5.09 v 7.7 a 26.14,26.14 0 0 0 3,-1.1 c 3,-1.34 5.38,-3.07 6.43,-4.72 z"
           class="cls-1"
           id="path75" />
      </g>
    </g>
    <text
       xml:space="preserve"
       style="font-size:27.8603px;line-height:0;letter-spacing:-1.38307px;word-spacing:3.00493px;fill:#444444;fill-opacity:1;stroke-width:0.995011"
       x="273.43002"
       y="143.43919"
       id="text301"
       transform="scale(0.99982142,1.0001786)"><tspan
         sodipodi:role="line"
         id="tspan299"
         x="273.43002"
         y="143.43919"
         style="font-style:normal;font-variant:normal;font-weight:bold;font-stretch:normal;font-size:27.8603px;line-height:0px;font-family:'DejaVu Sans Mono';-inkscape-font-specification:'DejaVu Sans Mono Bold';fill:#444444;fill-opacity:1;stroke-width:0.995011"
         dx="0.089551024">Using the library:</tspan></text>
  </g>
</svg>
